<?xml version="1.0" encoding="utf-8"?>
<!-- Generator: Adobe Illustrator 16.0.0, SVG Export Plug-In . SVG Version: 6.00 Build 0)  -->
<!DOCTYPE svg PUBLIC "-//W3C//DTD SVG 1.1//EN" "http://www.w3.org/Graphics/SVG/1.1/DTD/svg11.dtd">
<svg version="1.1" id="Layer_1" xmlns="http://www.w3.org/2000/svg" xmlns:xlink="http://www.w3.org/1999/xlink" x="0px" y="0px"
	 width="801.484px" height="135.211px" viewBox="0 0 801.484 135.211" enable-background="new 0 0 801.484 135.211"
	 xml:space="preserve">
<g>
	<g>
		<defs>
			<path id="SVGID_1_" d="M66.206,0.971C29.403,2.635,0.922,33.809,2.579,70.634c1.672,36.792,32.864,65.272,69.664,63.628
				c36.813-1.684,65.303-32.861,63.638-69.671c-1.625-35.763-31.12-63.689-66.585-63.697C68.27,0.894,67.249,0.922,66.206,0.971"/>
		</defs>
		<clipPath id="SVGID_2_">
			<use xlink:href="#SVGID_1_"  overflow="visible"/>
		</clipPath>
		
			<radialGradient id="SVGID_3_" cx="-17.2202" cy="354.9277" r="3.808" gradientTransform="matrix(16.6228 0 0 -16.6217 363.771 5945.5308)" gradientUnits="userSpaceOnUse">
			<stop  offset="0" style="stop-color:#FFFFFF"/>
			<stop  offset="0.3372" style="stop-color:#E9D2B2"/>
			<stop  offset="0.6542" style="stop-color:#DAB37C"/>
			<stop  offset="0.8826" style="stop-color:#D1A25D"/>
			<stop  offset="1" style="stop-color:#CE9B51"/>
		</radialGradient>
		<rect x="0.922" y="0.894" clip-path="url(#SVGID_2_)" fill="url(#SVGID_3_)" width="136.623" height="135.012"/>
	</g>
	<g>
		<defs>
			<path id="SVGID_4_" d="M53.99,124.919c-7.468-0.734-16.384-3.083-24.151-9.813c-7.149-6.165-11.574-14.65-13.725-22.125
				C13.92,85.35,12.99,76.43,16.631,77.127c1.108,0.214,3.046,5.122,5.149,8.699c2.178,3.689,3.925,5.727,5.579,6.979
				c0.744,0.564,3.291-5.104,7.012-8.332c2.159-1.787,4.5-2.392,4.899,2.921c0.45,6.508-0.727,14.258,1.192,14.258
				c1.753,0,5.766-1.334,14.578-2.091c3.302-0.278,5.192,0.35,2.038,4.782c-1.581,2.228-3.68,5.371-8.671,8.954
				c7.482,7.007,16.451,6.154,16.622,9.143c0.099,1.707-3.252,2.651-7.639,2.651C56.305,125.092,55.17,125.037,53.99,124.919
				 M79.176,61.944c-6.854-1.428-8.256-7.651-8.256-7.651c-0.56-2.192-0.705-4.965-0.24-8.489c0.918-7.391,2.929-10.84,5.203-16.573
				c3.042-7.688-4.375-12.185-3.161-15.004c1.661-3.823,6.962,1.032,12.896,1.398c5.08,0.273,8.148,0.034,12.105,0.556
				c5.268,0.69,11.558,2.479,14.364,5.77c2.568,3.013-1.363,6.68-6.069,4.387c-3.455-1.687-7.8-0.658-5.243,2.944
				c3.053,3.419,4.521,3.51,7.661,4.327c8.611,2.271,8.79,10.536,2.955,14.793c-6.622,4.855-13.358,2.838-16.036-6.676
				c-1.348-4.76-4.695-7.179-8.148-5.818c-3.409,1.338-1.387,7.592,1.218,13.388c4.494,11.494-4.612,12.713-8.1,12.713
				C79.79,62.01,79.375,61.97,79.176,61.944 M74.234,127.079c-0.077-1.532,2.162-1.907,2.162-1.907
				c20.001-3.953,14.152-17.061,7.081-23.753c-2.983-2.802-30.821-26.836-30.821-26.836C26.118,51.73,28.241,33.896,28.241,33.896
				C29.545,11.931,48.746,6.493,63.289,7.761c1.707,0.145,2.659,1.168,2.343,2.596c-0.309,1.55-2.563,1.653-2.563,1.653
				c-4.63,0.283-8.781,0.744-11.916,2.873c-11.709,7.878-8.279,21.291,7.354,36.222c1.969,1.878,4.059,3.859,6.218,5.876
				c0,0,3.124,2.765,9.385,8.702C86.126,76.749,92.7,82.713,92.7,82.713c21.192,17.645,13.929,33.775,5.861,39.374
				c-6.181,4.284-13.013,6.291-21.988,6.774c-0.076,0.011-0.156,0.015-0.236,0.015C75.517,128.876,74.284,128.378,74.234,127.079
				 M66.16,0.069C28.866,1.751,0,33.368,1.685,70.662c1.69,37.296,33.297,66.163,70.6,64.479
				c37.293-1.68,66.171-33.282,64.483-70.587C135.142,28.282,105.205,0.004,69.256,0C68.228,0,67.195,0.022,66.16,0.069"/>
		</defs>
		<clipPath id="SVGID_5_">
			<use xlink:href="#SVGID_4_"  overflow="visible"/>
		</clipPath>
		
			<radialGradient id="SVGID_6_" cx="-17.4102" cy="358.8096" r="3.8051" gradientTransform="matrix(37.2094 0 0 -37.207 727.8235 13399.8389)" gradientUnits="userSpaceOnUse">
			<stop  offset="0" style="stop-color:#1ABFF1"/>
			<stop  offset="0.1013" style="stop-color:#15ABE2"/>
			<stop  offset="0.2191" style="stop-color:#1197D4"/>
			<stop  offset="0.2228" style="stop-color:#1196D3"/>
			<stop  offset="0.2823" style="stop-color:#1184C7"/>
			<stop  offset="0.3449" style="stop-color:#1077BD"/>
			<stop  offset="0.4111" style="stop-color:#0F6EB7"/>
			<stop  offset="0.4834" style="stop-color:#0E69B4"/>
			<stop  offset="0.573" style="stop-color:#0E67B2"/>
			<stop  offset="1" style="stop-color:#0E67B2"/>
		</radialGradient>
		<rect clip-path="url(#SVGID_5_)" fill="url(#SVGID_6_)" width="138.456" height="136.825"/>
	</g>
	<path fill="#717271" d="M173.676,87.731c5.404,4.323,13.954,7.023,19.898,7.023c7.293,0,11.706-3.153,11.706-9.182
		c0-4.685-1.891-7.66-7.836-10.622c-6.849-3.514-12.423-5.679-17.648-10.087c-4.68-4.139-8.009-9.186-8.009-16.657
		c0-10.443,8.637-17.731,23.052-17.731c7.917,0,14.578,1.257,20.792,3.96v11.071c0,1.621-1.535,2.159-2.795,1.08
		c-5.036-4.23-10.265-6.211-16.206-6.211c-6.389,0-9.991,2.972-9.991,7.831c0,3.511,1.255,5.945,3.602,7.834
		c4.501,3.689,10.084,6.389,15.038,8.736c9.36,4.409,14.853,9.626,14.853,20.614c0,13.686-11.62,19.356-26.38,19.356
		c-10.895,0-24.669-5.217-22.864-9.723L173.676,87.731z"/>
	<path fill="#717271" d="M228.151,31.425h15.389v25.12c3.779-3.241,8.554-5.221,14.227-5.221c11.345,0,18.816,6.573,18.816,16.116
		v36.189h-14.136V69.328c0-5.134-2.613-7.471-8.195-7.471c-3.688,0-7.111,1.618-10.713,4.229v37.542h-14.132V40.428
		c0-3.063-0.454-4.589-2.259-6.482C226.076,32.595,226.799,31.425,228.151,31.425"/>
	<path fill="#717271" d="M303.141,53.03v50.6h-14.132V61.944c0-2.882-0.632-4.409-2.25-6.298c-1.083-1.355-0.359-2.616,0.902-2.616
		H303.141z M303.687,37.005c0,4.862-3.602,8.557-8.554,8.557c-4.95,0-8.554-3.695-8.554-8.557c0-4.859,3.604-8.55,8.554-8.55
		C300.084,28.456,303.687,32.146,303.687,37.005"/>
	<path fill="#717271" d="M314.668,53.032h15.036v4.954c3.693-3.602,8.194-6.664,14.493-6.664c10.713,0,18.913,6.032,18.913,17.104
		v35.207h-14.141V69.688c0-5.674-2.516-8.194-8.195-8.194c-3.957,0-7.376,1.622-10.621,4.505v37.632h-14.136V62.126
		c0-3.063-0.537-4.592-2.242-6.482C312.601,54.293,313.32,53.032,314.668,53.032"/>
	<path fill="#717271" d="M373.821,31.425h15.397v25.12c3.778-3.241,8.549-5.221,14.218-5.221c11.35,0,18.822,6.573,18.822,16.116
		v36.189h-14.134V69.328c0-5.134-2.612-7.471-8.203-7.471c-3.682,0-7.106,1.618-10.704,4.229v37.542h-14.137V40.428
		c0-3.063-0.45-4.589-2.253-6.482C371.75,32.595,372.474,31.425,373.821,31.425"/>
	<path fill="#717271" d="M454.314,60.868c-5.494,0-11.262,2.521-15.306,5.132c-1.979,1.345-3.157,0.628-3.157-1.443v-9.455
		c5.313-2.337,13.329-3.78,19.361-3.78c13.952,0,21.966,5.403,21.966,16.564v35.744h-13.87v-5.491
		c-3.957,4.862-9.627,7.113-15.658,7.113c-10.084,0-17.02-6.48-17.02-16.029c0-10.799,7.477-17.552,23.321-17.552h9.094v-3.785
		C463.046,62.936,459.896,60.868,454.314,60.868 M463.046,81.031h-9.186c-6.931,0-9.629,3.154-9.629,7.926
		c0,3.961,2.341,6.661,6.481,6.661c4.858,0,9.184-2.253,12.333-5.854V81.031z"/>
	<path fill="#717271" d="M487.629,53.032h15.031v4.954c3.697-3.602,8.199-6.664,14.497-6.664c10.713,0,18.909,6.032,18.909,17.104
		v35.207h-14.142V69.688c0-5.674-2.52-8.194-8.195-8.194c-3.961,0-7.372,1.622-10.62,4.505v37.632h-14.133V62.126
		c0-3.063-0.537-4.592-2.246-6.482C485.557,54.293,486.276,53.032,487.629,53.032"/>
	<path fill="#717271" d="M574.959,33.405h24.761c14.767,0,24.128,6.751,24.128,17.648c0,6.843-2.7,11.88-7.925,15.033
		c7.292,2.791,11.703,8.101,11.703,17.464c0,13.238-10.709,20.078-26.825,20.078h-24.49V42.503c0-3.066-0.542-4.596-2.256-6.485
		C572.978,34.666,573.698,33.405,574.959,33.405 M590.986,62.039h7.741c6.75,0,10.443-2.525,10.443-9.276
		c0-6.839-3.693-9.365-10.712-9.365h-7.473V62.039z M612.503,82.744c0-7.475-4.144-10.712-12.604-10.712h-8.912v21.604h9.003
		C608.451,93.636,612.503,90.303,612.503,82.744"/>
	<path fill="#717271" d="M657.159,60.868c-5.49,0-11.253,2.521-15.305,5.132c-1.98,1.345-3.153,0.628-3.153-1.443v-9.455
		c5.313-2.337,13.325-3.78,19.356-3.78c13.954,0,21.967,5.403,21.967,16.564v35.744h-13.862v-5.491
		c-3.961,4.862-9.631,7.113-15.667,7.113c-10.08,0-17.01-6.48-17.01-16.029c0-10.799,7.468-17.552,23.312-17.552h9.096v-3.785
		C665.893,62.936,662.742,60.868,657.159,60.868 M665.893,81.031h-9.183c-6.931,0-9.634,3.154-9.634,7.926
		c0,3.961,2.341,6.661,6.485,6.661c4.855,0,9.181-2.253,12.331-5.854V81.031z"/>
	<path fill="#717271" d="M690.475,53.032h15.029v4.954c3.695-3.602,8.2-6.664,14.499-6.664c10.712,0,18.906,6.032,18.906,17.104
		v35.207h-14.132V69.688c0-5.674-2.52-8.194-8.198-8.194c-3.956,0-7.38,1.622-10.622,4.505v37.632h-14.135V62.126
		c0-3.063-0.538-4.592-2.246-6.482C688.403,54.293,689.126,53.032,690.475,53.032"/>
	<path fill="#717271" d="M750.889,103.63V40.428c0-3.06-0.45-4.592-2.26-6.48c-1.076-1.352-0.354-2.521,0.999-2.521h15.393v41.414
		l17.918-19.807h16.202l-19.353,21.608l21.696,28.987h-15.577l-15.574-21.159c-1.617-2.25-2.338-2.608-4.052-2.608h-1.261v23.768
		H750.889z"/>
</g>
</svg>
